<?xml version="1.0" encoding="UTF-8" standalone="no"?>
<!-- Created with Inkscape (http://www.inkscape.org/) -->

<svg
   width="1024"
   height="1024"
   viewBox="0 0 270.93333 270.93333"
   version="1.1"
   id="svg1"
   xml:space="preserve"
   sodipodi:docname="icon.svg"
   inkscape:version="1.4.3 (0d15f75042, 2025-12-25)"
   inkscape:export-filename="athanor.svg"
   inkscape:export-xdpi="96"
   inkscape:export-ydpi="96"
   xmlns:inkscape="http://www.inkscape.org/namespaces/inkscape"
   xmlns:sodipodi="http://sodipodi.sourceforge.net/DTD/sodipodi-0.dtd"
   xmlns="http://www.w3.org/2000/svg"
   xmlns:svg="http://www.w3.org/2000/svg"><sodipodi:namedview
     id="namedview1"
     pagecolor="#505050"
     bordercolor="#ffffff"
     borderopacity="1"
     inkscape:showpageshadow="0"
     inkscape:pageopacity="0"
     inkscape:pagecheckerboard="1"
     inkscape:deskcolor="#505050"
     inkscape:document-units="mm"
     inkscape:zoom="1.4142136"
     inkscape:cx="557.5537"
     inkscape:cy="508.05622"
     inkscape:window-width="3840"
     inkscape:window-height="2091"
     inkscape:window-x="0"
     inkscape:window-y="0"
     inkscape:window-maximized="1"
     inkscape:current-layer="svg1" /><defs
     id="defs1"><inkscape:path-effect
       effect="mirror_symmetry"
       start_point="160.34864,174.06365"
       end_point="160.34826,229.31095"
       center_point="160.34845,201.6873"
       id="path-effect63"
       is_visible="true"
       lpeversion="1.2"
       lpesatellites=""
       mode="free"
       discard_orig_path="false"
       fuse_paths="false"
       oposite_fuse="false"
       split_items="false"
       split_open="false"
       link_styles="false" /><inkscape:path-effect
       effect="mirror_symmetry"
       start_point="160.34864,174.06365"
       end_point="160.34826,229.31095"
       center_point="160.34845,201.6873"
       id="path-effect58"
       is_visible="true"
       lpeversion="1.2"
       lpesatellites=""
       mode="free"
       discard_orig_path="false"
       fuse_paths="false"
       oposite_fuse="false"
       split_items="false"
       split_open="false"
       link_styles="false" /><inkscape:path-effect
       effect="offset"
       id="path-effect44"
       is_visible="true"
       lpeversion="1.3"
       linejoin_type="miter"
       unit="px"
       offset="13"
       miter_limit="4"
       attempt_force_join="false"
       update_on_knot_move="true" /><inkscape:path-effect
       effect="offset"
       id="path-effect43"
       is_visible="true"
       lpeversion="1.3"
       linejoin_type="miter"
       unit="mm"
       offset="3.4395833"
       miter_limit="4"
       attempt_force_join="false"
       update_on_knot_move="true" /><inkscape:path-effect
       effect="offset"
       id="path-effect40"
       is_visible="true"
       lpeversion="1.3"
       linejoin_type="miter"
       unit="px"
       offset="23"
       miter_limit="4"
       attempt_force_join="false"
       update_on_knot_move="true" /><inkscape:path-effect
       effect="mirror_symmetry"
       start_point="160.34864,174.06365"
       end_point="160.34826,229.31095"
       center_point="160.34845,201.6873"
       id="path-effect39"
       is_visible="true"
       lpeversion="1.2"
       lpesatellites=""
       mode="free"
       discard_orig_path="false"
       fuse_paths="false"
       oposite_fuse="false"
       split_items="false"
       split_open="false"
       link_styles="false" /><inkscape:path-effect
       effect="offset"
       id="path-effect36"
       is_visible="true"
       lpeversion="1.3"
       linejoin_type="miter"
       unit="px"
       offset="23"
       miter_limit="4"
       attempt_force_join="false"
       update_on_knot_move="true" /><inkscape:path-effect
       effect="mirror_symmetry"
       start_point="160.34864,174.06365"
       end_point="160.34826,229.31095"
       center_point="160.34845,201.6873"
       id="path-effect35"
       is_visible="true"
       lpeversion="1.2"
       lpesatellites=""
       mode="free"
       discard_orig_path="false"
       fuse_paths="false"
       oposite_fuse="false"
       split_items="false"
       split_open="false"
       link_styles="false" /><inkscape:path-effect
       effect="offset"
       id="path-effect31"
       is_visible="true"
       lpeversion="1.3"
       linejoin_type="miter"
       unit="px"
       offset="13"
       miter_limit="4"
       attempt_force_join="false"
       update_on_knot_move="true" /><inkscape:path-effect
       effect="mirror_symmetry"
       start_point="160.34864,174.06365"
       end_point="160.34826,229.31095"
       center_point="160.34845,201.6873"
       id="path-effect30"
       is_visible="true"
       lpeversion="1.2"
       lpesatellites=""
       mode="free"
       discard_orig_path="false"
       fuse_paths="false"
       oposite_fuse="false"
       split_items="false"
       split_open="false"
       link_styles="false" /><inkscape:path-effect
       effect="offset"
       id="path-effect52"
       is_visible="true"
       lpeversion="1.3"
       linejoin_type="miter"
       unit="px"
       offset="13"
       miter_limit="4"
       attempt_force_join="false"
       update_on_knot_move="true" /><inkscape:path-effect
       effect="offset"
       id="path-effect51"
       is_visible="true"
       lpeversion="1.3"
       linejoin_type="round"
       unit="px"
       offset="13"
       miter_limit="4"
       attempt_force_join="false"
       update_on_knot_move="true" /><inkscape:path-effect
       effect="offset"
       id="path-effect48"
       is_visible="true"
       lpeversion="1.3"
       linejoin_type="round"
       unit="px"
       offset="13"
       miter_limit="4"
       attempt_force_join="false"
       update_on_knot_move="true" /><inkscape:path-effect
       effect="mirror_symmetry"
       start_point="160.34826,119.82306"
       end_point="160.34827,128.5894"
       center_point="160.34827,124.20623"
       id="path-effect45"
       is_visible="true"
       lpeversion="1.2"
       lpesatellites=""
       mode="free"
       discard_orig_path="false"
       fuse_paths="false"
       oposite_fuse="false"
       split_items="false"
       split_open="false"
       link_styles="false" /><inkscape:path-effect
       effect="offset"
       id="path-effect37"
       is_visible="true"
       lpeversion="1.3"
       linejoin_type="round"
       unit="px"
       offset="-15"
       miter_limit="4"
       attempt_force_join="false"
       update_on_knot_move="true" /><inkscape:path-effect
       effect="offset"
       id="path-effect33"
       is_visible="true"
       lpeversion="1.3"
       linejoin_type="round"
       unit="px"
       offset="15"
       miter_limit="4"
       attempt_force_join="false"
       update_on_knot_move="true" /><inkscape:path-effect
       effect="mirror_symmetry"
       start_point="160.34826,221.49224"
       end_point="160.34826,238.7477"
       center_point="160.34826,230.11997"
       id="path-effect26"
       is_visible="true"
       lpeversion="1.2"
       lpesatellites=""
       mode="free"
       discard_orig_path="false"
       fuse_paths="false"
       oposite_fuse="true"
       split_items="false"
       split_open="false"
       link_styles="false" /><inkscape:path-effect
       effect="mirror_symmetry"
       start_point="160.49,219.61561"
       end_point="160.48529,241.55406"
       center_point="160.48764,230.58483"
       id="path-effect25"
       is_visible="true"
       lpeversion="1.2"
       lpesatellites=""
       mode="free"
       discard_orig_path="false"
       fuse_paths="false"
       oposite_fuse="false"
       split_items="false"
       split_open="false"
       link_styles="false" /><inkscape:path-effect
       effect="mirror_symmetry"
       start_point="160.48529,222.79709"
       end_point="160.48529,235.00822"
       center_point="160.48529,228.90265"
       id="path-effect23"
       is_visible="true"
       lpeversion="1.2"
       lpesatellites=""
       mode="free"
       discard_orig_path="false"
       fuse_paths="true"
       oposite_fuse="true"
       split_items="false"
       split_open="false"
       link_styles="false" /><inkscape:path-effect
       effect="mirror_symmetry"
       start_point="160.48529,222.22212"
       end_point="160.353,237.85473"
       center_point="160.41915,230.03842"
       id="path-effect22"
       is_visible="true"
       lpeversion="1.2"
       lpesatellites=""
       mode="free"
       discard_orig_path="false"
       fuse_paths="true"
       oposite_fuse="true"
       split_items="false"
       split_open="false"
       link_styles="false" /><inkscape:path-effect
       effect="mirror_symmetry"
       start_point="160.34864,174.06365"
       end_point="160.34826,229.31095"
       center_point="160.34845,201.6873"
       id="path-effect4"
       is_visible="true"
       lpeversion="1.2"
       lpesatellites=""
       mode="free"
       discard_orig_path="false"
       fuse_paths="false"
       oposite_fuse="false"
       split_items="false"
       split_open="false"
       link_styles="false" /><inkscape:path-effect
       effect="mirror_symmetry"
       start_point="160.48055,174.06262"
       end_point="160.21597,229.52593"
       center_point="160.34826,201.79427"
       id="path-effect21"
       is_visible="true"
       lpeversion="1.2"
       lpesatellites=""
       mode="free"
       discard_orig_path="false"
       fuse_paths="false"
       oposite_fuse="false"
       split_items="false"
       split_open="false"
       link_styles="false" /><inkscape:path-effect
       effect="mirror_symmetry"
       start_point="160.19467,148.94241"
       end_point="160.19468,85.21889"
       center_point="160.19468,117.08065"
       id="path-effect24"
       is_visible="true"
       lpeversion="1.2"
       lpesatellites=""
       mode="free"
       discard_orig_path="false"
       fuse_paths="false"
       oposite_fuse="true"
       split_items="false"
       split_open="false"
       link_styles="false" /><inkscape:path-effect
       effect="mirror_symmetry"
       start_point="160.19468,85.218887"
       end_point="160.19468,173.52474"
       center_point="160.19468,129.37181"
       id="path-effect20"
       is_visible="true"
       lpeversion="1.2"
       lpesatellites=""
       mode="free"
       discard_orig_path="false"
       fuse_paths="false"
       oposite_fuse="true"
       split_items="false"
       split_open="false"
       link_styles="false" /><inkscape:path-effect
       effect="curvestitching"
       id="path-effect19"
       is_visible="true"
       lpeversion="1"
       count="5"
       startpoint_edge_variation="0;1"
       startpoint_spacing_variation="0;1"
       endpoint_edge_variation="0;1"
       endpoint_spacing_variation="0;1"
       strokepath="m 109.22331,114.99874 h 9.35136"
       prop_scale="1"
       scale_y_rel="false" /><inkscape:path-effect
       effect="knot"
       id="path-effect18"
       is_visible="true"
       lpeversion="1"
       switcher_size="15"
       interruption_width="3"
       prop_to_stroke_width="true"
       add_stroke_width="inkscape_1.0_and_up"
       both="false"
       inverse_width="false"
       add_other_stroke_width="inkscape_1.0_and_up"
       crossing_points_vector="" /><inkscape:path-effect
       effect="bool_op"
       operand-path=""
       id="path-effect17"
       is_visible="true"
       lpeversion="1"
       operation="union"
       swap-operands="false"
       filltype-this="positive"
       filter=""
       filltype-operand="oddeven" /><inkscape:path-effect
       effect="join_type"
       id="path-effect15"
       is_visible="true"
       lpeversion="1"
       linecap_type="butt"
       line_width="0.26458299"
       linejoin_type="extrp_arc"
       miter_limit="100"
       attempt_force_join="true" /><inkscape:path-effect
       effect="simplify"
       id="path-effect14"
       is_visible="true"
       lpeversion="1.3"
       threshold="5"
       steps="1"
       smooth_angles="360"
       helper_size="10"
       simplify_individual_paths="false"
       simplify_just_coalesce="false" /><filter
       id="selectable_hidder_filter"
       width="1"
       height="1"
       x="0"
       y="0"
       style="color-interpolation-filters:sRGB;"
       inkscape:label="LPE boolean visibility"><feComposite
         id="boolops_hidder_primitive"
         result="composite1"
         operator="arithmetic"
         in2="SourceGraphic"
         in="BackgroundImage" /></filter><inkscape:path-effect
       effect="bool_op"
       operand-path=""
       id="path-effect13"
       is_visible="true"
       lpeversion="1"
       operation="inters"
       swap-operands="false"
       filltype-this="positive"
       filter=""
       filltype-operand="positive" /><inkscape:path-effect
       effect="mirror_symmetry"
       start_point="129.24895,109.79381"
       end_point="107.90038,109.79381"
       center_point="118.57467,109.79381"
       id="path-effect12"
       is_visible="true"
       lpeversion="1.2"
       lpesatellites=""
       mode="free"
       discard_orig_path="false"
       fuse_paths="true"
       oposite_fuse="false"
       split_items="false"
       split_open="false"
       link_styles="false" /><inkscape:path-effect
       effect="mirror_symmetry"
       start_point="118.57467,99.11952"
       end_point="118.57467,120.4681"
       center_point="118.57467,109.79381"
       id="path-effect11"
       is_visible="true"
       lpeversion="1.2"
       lpesatellites=""
       mode="free"
       discard_orig_path="false"
       fuse_paths="true"
       oposite_fuse="false"
       split_items="false"
       split_open="false"
       link_styles="false" /><inkscape:path-effect
       effect="mirror_symmetry"
       start_point="0,0"
       end_point="141.38,113.37"
       center_point="70.69,56.685"
       id="path-effect10"
       is_visible="true"
       lpeversion="1.2"
       lpesatellites=""
       mode="free"
       discard_orig_path="false"
       fuse_paths="false"
       oposite_fuse="false"
       split_items="false"
       split_open="false"
       link_styles="false" /><inkscape:path-effect
       effect="mirror_symmetry"
       start_point="105,0"
       end_point="105,297"
       center_point="105,148.5"
       id="path-effect9"
       is_visible="true"
       lpeversion="1.2"
       lpesatellites=""
       mode="vertical"
       discard_orig_path="false"
       fuse_paths="false"
       oposite_fuse="false"
       split_items="false"
       split_open="false"
       link_styles="false" /><inkscape:path-effect
       effect="mirror_symmetry"
       start_point="0,148.5"
       end_point="210,148.5"
       center_point="105,148.5"
       id="path-effect8"
       is_visible="true"
       lpeversion="1.2"
       lpesatellites=""
       mode="horizontal"
       discard_orig_path="false"
       fuse_paths="false"
       oposite_fuse="false"
       split_items="false"
       split_open="false"
       link_styles="false" /><inkscape:path-effect
       effect="mirror_symmetry"
       start_point="82.861825,74.43541"
       end_point="78.91788,78.182391"
       center_point="80.889852,76.3089"
       id="path-effect7"
       is_visible="true"
       lpeversion="1.2"
       lpesatellites=""
       mode="free"
       discard_orig_path="false"
       fuse_paths="false"
       oposite_fuse="false"
       split_items="false"
       split_open="false"
       link_styles="false" /><inkscape:path-effect
       effect="fillet_chamfer"
       id="path-effect6"
       is_visible="true"
       lpeversion="1"
       nodesatellites_param="F,0,0,1,0,0,0,1 @ F,0,0,1,0,0,0,1"
       radius="0"
       unit="px"
       method="auto"
       mode="F"
       chamfer_steps="1"
       flexible="false"
       use_knot_distance="true"
       apply_no_radius="true"
       apply_with_radius="true"
       only_selected="false"
       hide_knots="false" /><inkscape:path-effect
       effect="fillet_chamfer"
       id="path-effect2"
       is_visible="true"
       lpeversion="1"
       nodesatellites_param="F,0,0,1,0,0,0,1 @ F,0,0,1,0,0,0,1 @ F,0,0,1,0,0,0,1 @ F,0,0,1,0,0,0,1"
       radius="0"
       unit="px"
       method="auto"
       mode="F"
       chamfer_steps="1"
       flexible="false"
       use_knot_distance="true"
       apply_no_radius="true"
       apply_with_radius="true"
       only_selected="false"
       hide_knots="false" /><inkscape:path-effect
       effect="fill_between_many"
       method="bsplinespiro"
       autoreverse="false"
       close="false"
       join="false"
       linkedpaths="#path11,0,1"
       id="path-effect16" /><inkscape:path-effect
       effect="mirror_symmetry"
       start_point="118.57467,99.11952"
       end_point="118.57467,120.4681"
       center_point="118.57467,109.79381"
       id="path-effect11-7"
       is_visible="true"
       lpeversion="1.2"
       lpesatellites=""
       mode="free"
       discard_orig_path="false"
       fuse_paths="true"
       oposite_fuse="false"
       split_items="false"
       split_open="false"
       link_styles="false" /><inkscape:path-effect
       effect="mirror_symmetry"
       start_point="129.24895,109.79381"
       end_point="107.90038,109.79381"
       center_point="118.57467,109.79381"
       id="path-effect12-5"
       is_visible="true"
       lpeversion="1.2"
       lpesatellites=""
       mode="free"
       discard_orig_path="false"
       fuse_paths="true"
       oposite_fuse="false"
       split_items="false"
       split_open="false"
       link_styles="false" /><inkscape:path-effect
       effect="mirror_symmetry"
       start_point="160.49,219.61561"
       end_point="160.48529,241.55406"
       center_point="160.48764,230.58483"
       id="path-effect25-2"
       is_visible="true"
       lpeversion="1.2"
       lpesatellites=""
       mode="free"
       discard_orig_path="false"
       fuse_paths="false"
       oposite_fuse="false"
       split_items="false"
       split_open="false"
       link_styles="false" /></defs><g
     id="g57"
     inkscape:label="g 炼金炉"
     transform="matrix(1.7550622,0,0,1.7550622,-145.90322,-147.83707)"><g
       inkscape:groupmode="layer"
       id="layer6"
       inkscape:label="底座"
       style="display:inline;stroke:none"><g
         id="g25"
         inkscape:label="g 辅助线"
         style="display:none;stroke:none;stroke-width:0.264583;stroke-dasharray:0.264583, 0.264583;stroke-dashoffset:0;stroke-opacity:0.503776"
         transform="translate(0,-0.1405599)"><path
           style="fill:none;fill-opacity:1;stroke:none;stroke-width:0.264583;stroke-dasharray:0.264583, 0.264583;stroke-dashoffset:0;stroke-opacity:0.503776"
           d="M 160.34826,115.40884 V 238.74771"
           id="path14" /><rect
           style="fill:none;fill-opacity:1;stroke:none;stroke-width:0.264583;stroke-dasharray:0.264583, 0.264583;stroke-dashoffset:0;stroke-opacity:0.503776"
           id="rect14"
           width="108.69235"
           height="123.33887"
           x="106.00209"
           y="115.40884" /><path
           style="fill:none;fill-opacity:1;stroke:none;stroke-width:0.264583;stroke-dasharray:0.264583, 0.264583;stroke-dashoffset:0;stroke-opacity:0.503776"
           d="m 183.99845,128.67711 v 5.86351"
           id="path16" /><path
           style="display:inline;fill:none;fill-opacity:1;stroke:none;stroke-width:0.264583;stroke-dasharray:0.264583, 0.264583;stroke-dashoffset:0;stroke-opacity:0.503776"
           d="m 214.69444,135.16511 h -27.5421 l -50.16797,-0.003 h -30.98228"
           id="path19"
           sodipodi:nodetypes="cc"
           transform="translate(0,0.1405599)" /><path
           d="M 106.00209,206.65113 H 214.69444"
           id="path21"
           style="display:inline;stroke:none"
           transform="translate(0,0.1405599)" /><path
           d="M 105.94361,198.84823 H 214.63596"
           id="path24"
           style="display:inline;stroke:none" /><path
           style="fill:none;stroke:none;stroke-width:0.264583;stroke-dasharray:0.264583, 0.264583;stroke-dashoffset:0;stroke-opacity:0.501881"
           d="M 106.00209,218.95425 H 214.69444"
           id="path25"
           sodipodi:nodetypes="cc"
           transform="translate(0,0.1405599)" /></g><path
         id="path34"
         style="display:inline;fill:#28394d;fill-opacity:1;stroke:none;stroke-width:0.264583;stroke-dasharray:none;stroke-dashoffset:0;stroke-opacity:1"
         d="m 160.348,227.58024 c -21.54386,0 -34.55891,-4.70577 -42.00022,-12.6915 -1.03464,0.51479 -3.15635,2.58741 -3.3958,4.06551 l 1.7e-4,6.90269 c 1.6e-4,6.62821 20.32477,12.00136 45.39646,12.00136 25.07169,0 45.3963,-5.37315 45.39629,-12.00127 v -6.90259 c -0.23945,-1.4781 -2.36116,-3.55072 -3.3968,-4.06501 -7.44249,7.98551 -20.45731,12.69081 -42.0001,12.69081 z"
         sodipodi:nodetypes="scccscccs" /></g><g
       inkscape:groupmode="layer"
       id="layer7"
       inkscape:label="炼金炉"
       style="display:inline;stroke:none"><g
         id="g54"
         inkscape:label="g 内部"
         style="display:inline;stroke:none"><path
           id="path54"
           style="display:inline;fill:#111721;fill-opacity:1;stroke:none;stroke-width:0.264583;stroke-dasharray:none"
           inkscape:label="内"
           d="m 183.99803,128.67673 v 11.20475 c 12.7688,9.02702 21.14428,29.43339 23.76561,35.99991 1.2237,2.41433 2.38125,4.92787 -0.19843,8.63203 0.89297,23.58099 -7.44141,39.62721 -47.21737,39.62721 -39.77596,0 -48.11034,-16.04622 -47.21737,-39.62721 -2.57968,-3.70416 -1.42213,-6.2177 -0.19843,-8.63203 2.62133,-6.56652 10.99681,-26.97289 23.76561,-35.99991 v -11.20475 c 0.0406,-3.5592 3.2251,-5.81743 4.14504,-6.50183 3.3548,-2.4855 10.82671,-4.21437 19.50558,-4.21437 8.67893,0 16.15088,1.72889 19.50519,4.21439 0.91947,0.68438 4.10397,2.94261 4.14457,6.50181 z"
           sodipodi:nodetypes="ccccscccccscc" /></g><g
         id="g32"
         inkscape:label="g 轮廓"
         style="display:inline;stroke:none"><path
           id="path41"
           style="display:none;fill:none;fill-opacity:1;stroke:none;stroke-width:0.264583;stroke-dasharray:none;stroke-dashoffset:0;stroke-opacity:1"
           inkscape:label="半"
           d="m 160.34826,224.14101 c 39.77596,0 48.11034,-16.04622 47.21737,-39.62721 2.57968,-3.70416 1.42213,-6.2177 0.19843,-8.63203 -2.62133,-6.56652 -10.99681,-26.97289 -23.76561,-35.99991 v -11.20475 c -0.0406,-3.5592 -3.2251,-5.81743 -4.14607,-6.50081"
           sodipodi:nodetypes="cccccc" /><path
           id="path50"
           style="display:inline;fill:none;stroke:none;stroke-width:0.264583;stroke-dasharray:none"
           inkscape:label="内"
           d="m 183.99803,128.67673 v 11.20475 c 12.7688,9.02702 21.14428,29.43339 23.76561,35.99991 1.2237,2.41433 2.38125,4.92787 -0.19843,8.63203 0.89297,23.58099 -7.44141,39.62721 -47.21737,39.62721 -39.77596,0 -48.11034,-16.04622 -47.21737,-39.62721 -2.57968,-3.70416 -1.42213,-6.2177 -0.19843,-8.63203 2.62133,-6.56652 10.99681,-26.97289 23.76561,-35.99991 v -11.20475 c 0.0406,-3.5592 3.2251,-5.81743 4.14504,-6.50183 3.3548,-2.4855 10.82671,-4.21437 19.50558,-4.21437 8.67893,0 16.15088,1.72889 19.50519,4.21439 0.91947,0.68438 4.10397,2.94261 4.14457,6.50181 z"
           sodipodi:nodetypes="ccccscccccscc" /><path
           id="path51"
           style="display:inline;fill:none;stroke:none;stroke-width:0.264583;stroke-dasharray:none"
           inkscape:label="外"
           d="m 160.34766,114.52148 c -8.5648,0 -17.14259,1.6228 -21.5586,4.89454 -0.75711,0.56326 -5.46894,3.75825 -5.53125,9.2207 v 0.0195 9.50195 c -12.80345,10.06432 -20.92674,29.95422 -23.46484,36.30664 -1.31663,2.61504 -2.88402,6.28978 -0.13477,11 -0.64156,24.69202 9.23488,42.11524 50.68946,42.11524 41.45457,0 51.33101,-17.42322 50.68945,-42.11524 2.74925,-4.71022 1.18187,-8.38497 -0.13477,-11 -2.53809,-6.35242 -10.66139,-26.24232 -23.46484,-36.30664 v -9.50195 -0.0195 c -0.0623,-5.46274 -4.77637,-8.65839 -5.53711,-9.22461 -4.41042,-3.26807 -12.98788,-4.89063 -21.55273,-4.89063 z"
           sodipodi:nodetypes="ccccscccccscc" /><path
           id="path53"
           style="display:inline;fill:#31445e;fill-opacity:1;stroke:none;stroke-width:0.264583;stroke-dasharray:none"
           inkscape:label="全"
           d="m 160.34766,114.52148 c -8.5648,0 -17.14259,1.6228 -21.5586,4.89454 -0.75711,0.56326 -5.46894,3.75825 -5.53125,9.2207 v 0.0195 9.50195 c -12.80345,10.06432 -20.92674,29.95422 -23.46484,36.30664 -1.31663,2.61504 -2.88402,6.28978 -0.13477,11 -0.64156,24.69202 9.23488,42.11524 50.68946,42.11524 41.45457,0 51.33101,-17.42322 50.68945,-42.11524 2.74925,-4.71022 1.18187,-8.38497 -0.13477,-11 -2.53809,-6.35242 -10.66139,-26.24232 -23.46484,-36.30664 v -9.50195 -0.0195 c -0.0623,-5.46274 -4.77637,-8.65839 -5.53711,-9.22461 -4.41042,-3.26807 -12.98788,-4.89063 -21.55273,-4.89063 z m 23.65037,14.15525 v 11.20475 c 12.7688,9.02702 21.14428,29.43339 23.76561,35.99991 1.2237,2.41433 2.38125,4.92787 -0.19843,8.63203 0.89297,23.58099 -7.44141,39.62721 -47.21737,39.62721 -39.77596,0 -48.11034,-16.04622 -47.21737,-39.62721 -2.57968,-3.70416 -1.42213,-6.2177 -0.19843,-8.63203 2.62133,-6.56652 10.99681,-26.97289 23.76561,-35.99991 v -11.20475 c 0.0406,-3.5592 3.2251,-5.81743 4.14504,-6.50183 3.3548,-2.4855 10.82671,-4.21437 19.50558,-4.21437 8.67893,0 16.15088,1.72889 19.50519,4.21439 0.91947,0.68438 4.10397,2.94261 4.14457,6.50181 z" /></g><g
         id="g7"
         inkscape:label="g 炉膛(内部)"
         style="display:inline;stroke:none"><rect
           style="display:none;fill:none;fill-opacity:1;stroke:none;stroke-width:0.25422;stroke-dasharray:none;stroke-dashoffset:0;stroke-opacity:1"
           id="rect6"
           width="69.513809"
           height="51.463306"
           x="125.59135"
           y="173.97545"
           ry="0" /></g></g><g
       inkscape:groupmode="layer"
       id="layer2"
       inkscape:label="矿石"
       style="display:inline;stroke:none"><g
         id="g20"
         inkscape:label="g 辅助线"
         style="display:none;stroke:none;stroke-dasharray:1, 1;stroke-dashoffset:0;stroke-opacity:0.362542"
         sodipodi:insensitive="true"><rect
           style="fill:#000000;fill-opacity:0.0739218;stroke:none;stroke-width:0.224918;stroke-dasharray:1, 1;stroke-dashoffset:0;stroke-opacity:0.362542"
           id="rect8"
           width="36.054234"
           height="63.743359"
           x="142.16756"
           y="85.199051"
           ry="0" /><path
           style="fill:#000000;fill-opacity:0.0739218;stroke:none;stroke-width:0.264583;stroke-dasharray:1, 1;stroke-dashoffset:0;stroke-opacity:0.362542"
           d="m 160.19468,85.218885 -1e-5,63.723525"
           id="path9"
           sodipodi:nodetypes="cc" /><path
           style="fill:#000000;fill-opacity:0.0739218;stroke:none;stroke-width:0.264583;stroke-dasharray:1, 1;stroke-dashoffset:0;stroke-opacity:0.362542"
           d="M 178.20196,108.8856 H 160.19468 142.18739"
           id="path10" /></g><g
         id="g14"
         style="display:inline;fill:none;stroke:none;stroke-opacity:0.503754"
         inkscape:label="g 矿石"
         transform="matrix(1.1860775,0,0,1.1860775,-29.655048,-16.841539)"><path
           style="fill:#00b8f8;fill-opacity:1;stroke:none;stroke-width:0.264583;stroke-opacity:0.503754"
           d="m 160.19469,85.218885 -18.00729,17.586325 9.00364,6.08039 z"
           id="path57" /><path
           style="fill:#00b8f8;fill-opacity:1;stroke:none;stroke-width:0.264583;stroke-opacity:0.503754"
           d="m 160.19468,85.218885 18.00728,17.586335 -9.00364,6.08038 z"
           id="path12" /><path
           style="fill:#00c8fc;fill-opacity:1;stroke:none;stroke-width:0.264583;stroke-opacity:0.503754"
           d="m 151.19104,108.8856 5.57954,40.05681 h -7.24967 l -7.33351,-46.1372 z"
           id="path56" /><path
           style="fill:#009cf0;fill-opacity:1;stroke:none;stroke-width:0.264583;stroke-opacity:0.503754"
           d="m 169.19832,108.8856 -5.57955,40.05681 h 7.24967 l 7.33352,-46.13719 z"
           id="path13" /><path
           style="fill:#94e4fc;fill-opacity:1;stroke:none;stroke-width:0.264583;stroke-opacity:0.503754"
           d="m 160.19468,85.218883 9.00364,23.666717 h -9.00364 m 1e-5,-23.666717 -9.00365,23.666717 h 9.00364"
           id="path23" /><path
           style="display:inline;fill:#00b8f8;fill-opacity:1;stroke:none;stroke-width:0.264583;stroke-opacity:0.503754"
           d="m 160.19467,108.8856 h 9.00365 l -5.57955,40.05681 h -3.4241 m 2e-5,-40.05681 h -9.00365 l 5.57954,40.05681 h 3.4241"
           id="path1" /></g></g><g
       inkscape:groupmode="layer"
       id="layer5"
       inkscape:label="炼金炉"
       style="display:inline;stroke:none"><g
         id="g44"
         inkscape:label="g 外壁"
         style="display:inline;stroke:none;stroke-width:0.264583;stroke-dasharray:0.264583, 0.264583;stroke-dashoffset:0;stroke-opacity:0.503776"><path
           id="path44"
           style="display:inline;fill:#8198b2;fill-opacity:1;stroke:none;stroke-width:0.264583;stroke-dasharray:none;stroke-dashoffset:0;stroke-opacity:0.503776"
           inkscape:label="path"
           d="m 160.34835,181.92016 v 37.59461 l 5.2e-4,-37.59461 c 15.91213,0.0237 25.34242,9.02358 26.30124,16.78761 v 17.68936 c -7.74726,2.03865 -16.74599,3.11763 -26.30176,3.11764 -9.55582,-1.3e-4 -18.55449,-1.07887 -26.30175,-3.11764 v -17.68988 c 0.95892,-7.7641 10.3893,-16.76377 26.30175,-16.78709 z m 21.39483,-56.80183 c 1e-5,3.95315 -9.57882,7.15781 -21.39491,7.15781 -11.81609,0 -21.39492,-3.20466 -21.39491,-7.15781 0,-1.04957 0.67523,-2.04638 1.88875,-2.94391 -0.91948,0.68495 -4.10391,2.94328 -4.14451,6.50248 v 11.20448 c -12.7688,9.02702 -21.14415,29.43335 -23.76548,35.99987 -1.2237,2.41433 -2.38124,4.92788 0.19844,8.63204 -0.89297,23.58099 7.44132,39.62755 47.21728,39.62755 39.77596,0 48.11024,-16.04656 47.21727,-39.62755 2.57968,-3.70416 1.42214,-6.21771 0.19844,-8.63204 -2.62133,-6.56652 -10.99668,-26.97285 -23.76548,-35.99987 V 128.6769 c -0.0406,-3.5592 -3.22498,-5.81755 -4.14378,-6.50246 1.21368,0.89755 1.88889,1.89434 1.88889,2.94389 z"
           sodipodi:nodetypes="cccccccccssscccccscccccs" /></g><g
         id="g6"
         inkscape:label="g 辅助线"
         style="display:inline;stroke:none;stroke-width:0.264583;stroke-dasharray:0.264583, 0.264583;stroke-dashoffset:0;stroke-opacity:0.503776"
         transform="translate(0,-0.1405599)"><path
           style="fill:none;fill-opacity:1;stroke:none;stroke-width:0.264583;stroke-dasharray:0.264583, 0.264583;stroke-dashoffset:0;stroke-opacity:0.503776"
           d="M 160.34826,115.40884 V 238.74771"
           id="path6" /><rect
           style="fill:none;fill-opacity:1;stroke:none;stroke-width:0.264583;stroke-dasharray:0.264583, 0.264583;stroke-dashoffset:0;stroke-opacity:0.503776"
           id="rect5"
           width="108.69235"
           height="123.33887"
           x="106.00209"
           y="115.40884" /><path
           style="fill:none;fill-opacity:1;stroke:none;stroke-width:0.264583;stroke-dasharray:0.264583, 0.264583;stroke-dashoffset:0;stroke-opacity:0.503776"
           d="m 183.99845,128.67711 v 5.86351"
           id="path42" /><path
           style="display:inline;fill:none;fill-opacity:1;stroke:none;stroke-width:0.264583;stroke-dasharray:0.264583, 0.264583;stroke-dashoffset:0;stroke-opacity:0.503776"
           d="m 214.69444,135.16511 h -27.5421 l -50.16797,-0.003 h -30.98228"
           id="path32"
           sodipodi:nodetypes="cc"
           transform="translate(0,0.1405599)" /><path
           d="M 106.00209,206.65113 H 214.69444"
           id="path31"
           style="display:inline;stroke:none"
           transform="translate(0,0.1405599)" /><path
           d="M 105.94361,198.84823 H 214.63596"
           id="path36"
           style="display:inline;stroke:none" /></g><g
         id="g24"
         inkscape:label="g 勾线"
         style="display:inline;stroke:none;stroke-width:3.43958;stroke-dasharray:none;stroke-opacity:0.368082"><path
           style="baseline-shift:baseline;display:inline;overflow:visible;opacity:1;fill:#31445e;fill-opacity:1;stroke:none;stroke-width:0.264583;stroke-dasharray:none;stroke-opacity:0.981227;enable-background:accumulate;stop-color:#000000;stop-opacity:1"
           d="m 133.25863,135.16211 c 0,2.59226 1.93546,4.84464 4.36442,6.58398 2.42895,1.73935 5.74755,3.10703 9.7832,4.07032 8.0713,1.92658 17.81151,1.92658 25.88281,0 4.03565,-0.96329 7.35425,-2.33097 9.78321,-4.07032 2.42895,-1.73934 4.36563,-3.98891 4.36563,-6.58117 h -3.43945 c 0,1.11278 -1.02635,2.42246 -2.92814,3.7843 -1.90179,1.36184 -4.85471,2.63226 -8.58008,3.52148 -7.45073,1.77846 -16.83442,1.77846 -24.28515,0 -3.72537,-0.88922 -6.67634,-2.15964 -8.57813,-3.52148 -1.90178,-1.36184 -2.92887,-2.67433 -2.92887,-3.78711 z"
           id="path7"
           inkscape:label="path1"
           sodipodi:nodetypes="cssssccsssscc" /><path
           id="path15"
           style="baseline-shift:baseline;display:inline;overflow:visible;opacity:1;vector-effect:none;fill:#31445e;fill-opacity:1;stroke:none;stroke-opacity:1;enable-background:accumulate;stop-color:#000000;stop-opacity:1"
           inkscape:label="path3"
           d="m 109.31064,183.89058 c 0,1.78929 0.85526,3.44894 2.17971,4.84002 1.32446,1.39108 3.13634,2.59847 5.38675,3.7052 2.25723,1.11008 4.96469,2.11489 8.07961,3.00137 0.25006,-1.12299 0.58617,-2.22377 1.00356,-3.29851 -2.99118,-0.8492 -5.53583,-1.79367 -7.56388,-2.79104 -2.00703,-0.98704 -3.49927,-2.02905 -4.4142,-2.99 -0.91492,-0.96095 -1.23197,-1.75487 -1.23197,-2.46704 z m 98.63687,0 c 0,0.71217 -0.31755,1.50609 -1.23248,2.46704 -0.91492,0.96095 -2.40717,2.00296 -4.4142,2.99 -2.02798,0.99733 -4.57285,1.94187 -7.5644,2.79104 0.41737,1.07465 0.7535,2.17562 1.00356,3.29851 3.1144,-0.8864 5.82165,-1.89144 8.07858,-3.00137 2.25041,-1.10673 4.0623,-2.31412 5.38675,-3.7052 1.32445,-1.39108 2.18126,-3.05073 2.18126,-4.84002 z" /><path
           id="path15-3"
           style="baseline-shift:baseline;display:inline;overflow:visible;opacity:1;vector-effect:none;fill:#31445e;fill-opacity:1;stroke:none;stroke-opacity:1;enable-background:accumulate;stop-color:#000000;stop-opacity:1"
           inkscape:label="path2"
           d="m 110.79086,172.00759 c 0,3.57783 4.22203,6.48046 8.48661,8.79533 2.92212,1.58617 6.63465,2.96485 11.03499,4.10156 0.84708,-1.00129 1.77613,-1.95804 2.78019,-2.86443 -5.07478,-1.1792 -9.21585,-2.65475 -12.17445,-4.26072 -3.75983,-2.0409 -6.39305,-4.14565 -6.39305,-5.77174 z m 95.37967,0 c 0,1.62609 -2.63116,3.73084 -6.39099,5.77174 -2.95872,1.60603 -7.10046,3.08201 -12.17549,4.26124 1.00395,0.9063 1.93268,1.86273 2.77968,2.86391 4.40062,-1.13667 8.11405,-2.51548 11.03602,-4.10156 4.26458,-2.31487 8.4847,-5.2175 8.4847,-8.79533 z"
           sodipodi:nodetypes="csccscccsccscc" /></g><g
         id="g8"
         inkscape:label="g 炉膛(开口)"
         style="display:inline;stroke:none"><path
           id="path2"
           style="fill:#000000;fill-opacity:0;stroke:none;stroke-width:0.264583;stroke-linejoin:bevel;stroke-dasharray:none;stroke-dashoffset:0;stroke-opacity:1"
           d="m 160.34826,181.92034 c 15.91265,0.0234 25.34301,9.02316 26.30184,16.78733 v 17.68965 c -7.74729,2.03866 -16.74602,3.1173 -26.30184,3.1173 m 6.5e-4,-37.59428 c -15.91265,0.0232 -25.34313,9.02282 -26.30206,16.78697 l -2.4e-4,17.68965 c 7.74726,2.03877 16.74597,3.11753 26.30179,3.11766"
           sodipodi:nodetypes="cccc"
           inkscape:path-effect="#path-effect4"
           inkscape:original-d="m 160.34826,181.92034 c 15.91265,0.0234 25.34301,9.02316 26.30184,16.78733 v 17.68965 c -7.74729,2.03866 -16.74602,3.1173 -26.30184,3.1173"
           inkscape:label="path1" /><path
           id="path37"
           style="display:inline;fill:#000000;fill-opacity:0;stroke:none;stroke-width:0.264583;stroke-linejoin:bevel;stroke-dasharray:none;stroke-dashoffset:0;stroke-opacity:1"
           d="m 192.73552,217.96831 v -19.63498 l -0.0459,-0.37151 C 191.23383,186.17351 178.2197,175.8612 160.35719,175.83493 m -0.0172,0 c -17.86251,0.026 -30.87678,10.33816 -32.33273,22.12645 l -0.0459,0.37152 -2.7e-4,19.63592 v 0 c 7.23455,3.97037 17.65385,6.17181 32.38675,6.17181 14.73353,0 25.15309,-2.20163 32.38768,-6.17232"
           sodipodi:nodetypes="ccsccscccsc"
           inkscape:label="path2" /><path
           id="path43"
           style="display:inline;fill:#000000;fill-opacity:0;stroke:none;stroke-width:0.264583;stroke-linejoin:bevel;stroke-dasharray:none;stroke-dashoffset:0;stroke-opacity:1"
           inkscape:label="path3"
           d="m 160.33492,172.39516 c -19.09869,0.0278 -34.01751,11.18631 -35.74149,25.14472 l -0.0718,0.58136 v 17.65629 c 7.23479,5.34379 18.5725,8.36331 35.82624,8.36331 17.25454,0 28.59252,-3.01957 35.82727,-8.36383 v -17.65525 l -0.0718,-0.58136 c -1.7238,-13.95856 -16.6423,-25.11715 -35.74098,-25.14524 z" /><path
           id="path61"
           style="display:inline;fill:#425367;fill-opacity:1;stroke:none;stroke-width:0.264583;stroke-linejoin:bevel;stroke-dasharray:none;stroke-dashoffset:0;stroke-opacity:1"
           inkscape:label="path1"
           d="m 186.6501,198.70767 v 17.68965 c -7.74729,2.03866 -16.74602,3.1173 -26.30177,3.1173 -9.55575,-1.3e-4 -18.55446,-1.07889 -26.30172,-3.11766 l 2.4e-4,-17.68965 c 0.95893,-7.76415 10.38941,-16.76377 26.30173,-16.78697 15.91233,0.0234 25.34269,9.02316 26.30152,16.78733 z m 6.08542,19.26064 v -19.63498 l -0.0459,-0.37151 C 191.23383,186.17351 178.2197,175.8612 160.35719,175.83493 m -0.0172,0 c -17.86251,0.026 -30.87678,10.33816 -32.33273,22.12645 l -0.0459,0.37152 -2.7e-4,19.63592 v 0 c 7.23455,3.97037 17.65385,6.17181 32.38675,6.17181 14.73353,0 25.15309,-2.20163 32.38768,-6.17232" /></g><g
         id="g9"
         style="display:inline;stroke:none;stroke-width:0.264583;stroke-dasharray:none"><g
           id="g19"
           inkscape:label="上开口"
           style="display:inline;stroke:none"><g
             id="g3"
             inkscape:label="g 线"
             style="display:inline;stroke:none"><path
               style="display:inline;fill:none;stroke:none"
               d="m 179.85496,122.17392 c 1.21301,0.89807 1.88822,1.89486 1.88822,2.94441 1e-5,3.95315 -9.57882,7.15781 -21.39491,7.15781 -11.81609,0 -21.39492,-3.20466 -21.39491,-7.15781 0,-1.04957 0.67523,-2.04638 1.88829,-2.94446"
               id="path45"
               inkscape:label="下" /><path
               style="display:inline;fill:none;stroke:none;stroke-width:0.264583;stroke-dasharray:none"
               d="m 181.27102,123.61581 c -2.06348,3.23175 -10.64715,5.65528 -20.92275,5.65528 -10.2756,0 -18.85927,-2.42353 -20.92275,-5.65528"
               id="path45-7"
               inkscape:label="下 2"
               sodipodi:nodetypes="csc" /><path
               style="display:inline;fill:none;stroke:none"
               d="m 140.84165,122.17387 c 3.35584,-2.48447 10.82775,-4.21334 19.50662,-4.21334 8.67893,0 16.15088,1.72889 19.50669,4.21339"
               id="path38"
               inkscape:label="上" /><path
               style="display:inline;fill:none;stroke:none;stroke-width:0.265467;stroke-dasharray:none"
               id="path7-3"
               sodipodi:arc-type="arc"
               sodipodi:type="arc"
               sodipodi:cx="160.34827"
               sodipodi:cy="125.11833"
               sodipodi:rx="25.167999"
               sodipodi:ry="10.405171"
               sodipodi:start="0.34906585"
               sodipodi:end="2.7925268"
               d="m 183.99845,128.67711 a 25.167999,10.405171 0 0 1 -23.65018,6.84639 25.167999,10.405171 0 0 1 -23.65019,-6.84639"
               sodipodi:open="true" /><path
               style="fill:none;fill-opacity:1;stroke:none;stroke-width:0.264583;stroke-dasharray:none;stroke-dashoffset:0;stroke-opacity:1"
               d="m 183.99845,128.67711 c -0.0406,-3.5592 -3.2251,-5.81743 -4.14607,-6.50081"
               id="path40"
               sodipodi:nodetypes="cc" /><path
               style="display:inline;fill:none;fill-opacity:1;stroke:none;stroke-width:0.264583;stroke-dasharray:none;stroke-dashoffset:0;stroke-opacity:1"
               d="m 136.69808,128.67711 c 0.0406,-3.5592 3.2226,-5.81986 4.14357,-6.50324"
               id="path40-6"
               sodipodi:nodetypes="cc" /><path
               style="display:inline;fill:none;stroke:none;stroke-width:0.264583;stroke-dasharray:none"
               d="m 183.99845,128.67711 v 5.86351 7.3918"
               id="path18" /><path
               style="display:inline;fill:none;stroke:none;stroke-width:0.264583;stroke-dasharray:none"
               d="m 136.69808,128.67711 v 5.86351 7.3918"
               id="path18-3" /></g><g
             id="g17"
             style="display:inline;stroke:none;stroke-width:0.264583;stroke-dasharray:none"
             inkscape:label="g 色块"><path
               id="path28"
               style="display:inline;fill:none;stroke:none;stroke-width:0.264583;stroke-dasharray:none"
               d="m 136.69808,128.67711 v 6.485 c 0,1.11278 1.02709,2.42527 2.92887,3.78711 1.90179,1.36184 4.85276,2.63226 8.57813,3.52148 7.45073,1.77846 16.83442,1.77846 24.28515,0 3.72537,-0.88922 6.67829,-2.15964 8.58008,-3.52148 1.90179,-1.36184 2.92814,-2.67152 2.92814,-3.7843 v -6.48781 m 0,0 c -3.61878,4.11051 -13.0696,6.84639 -23.65018,6.84639 -10.58059,0 -20.03141,-2.73588 -23.65019,-6.84639"
               sodipodi:nodetypes="ccsssscccsc"
               inkscape:label="path3" /><path
               id="path17"
               style="display:inline;fill:#b0d4f1;fill-opacity:1;stroke:none;stroke-width:0.264583;stroke-dasharray:none;stroke-dashoffset:0;stroke-opacity:1"
               d="m 179.85367,122.17511 c 1.2143,0.89688 1.88951,1.89367 1.88951,2.94322 1e-5,3.95315 -9.57882,7.15781 -21.39491,7.15781 -11.81609,0 -21.39492,-3.20466 -21.39491,-7.15781 0,-1.04957 0.67523,-2.04638 1.88829,-2.94446 -0.92097,0.68338 -4.10297,2.94404 -4.14357,6.50324 3.61878,4.11051 13.0696,6.84639 23.65019,6.84639 10.58058,0 20.0314,-2.73588 23.65018,-6.84639 -0.0406,-3.5592 -3.2251,-5.81743 -4.14478,-6.502 z"
               inkscape:label="path2"
               sodipodi:nodetypes="csssccscc" /><path
               id="path20"
               style="display:inline;fill:#31445e;fill-opacity:1;stroke:none;stroke-width:0.264583;stroke-dasharray:none"
               inkscape:label="path1"
               d="m 160.34827,129.27109 c -10.2756,0 -18.85927,-2.42353 -20.92275,-5.65528 -0.30935,0.48449 -0.47216,0.98714 -0.47216,1.50252 0,3.95315 9.57882,7.15781 21.39491,7.15781 11.81609,0 21.39491,-3.20466 21.39491,-7.15781 0,-0.51538 -0.16281,-1.01803 -0.47216,-1.50252 -2.06348,3.23175 -10.64715,5.65528 -20.92275,5.65528 z"
               sodipodi:nodetypes="scssscs" /></g></g></g><g
         id="g56"
         inkscape:label="g 高光"
         style="stroke:none"><path
           id="path39"
           style="fill:#a3b2c5;fill-opacity:1;stroke:none;stroke-width:0.264583;stroke-dasharray:none;stroke-dashoffset:0;stroke-opacity:1"
           d="m 142.37787,144.26096 c -3.3247,3.66079 -10.62067,16.4013 -14.26889,23.79131 5.47234,2.66601 8.2785,3.4352 11.22515,3.69539 2.43215,-8.88672 4.86249,-16.57737 8.83357,-25.75605 -0.25538,-0.0565 -0.50897,-0.11498 -0.76119,-0.17519 -1.82865,-0.43649 -3.5105,-0.95595 -5.02864,-1.55546 z" /><path
           id="path52"
           style="display:inline;fill:#a3b2c5;fill-opacity:1;stroke:none;stroke-width:0.264583;stroke-dasharray:none"
           inkscape:label="path3"
           d="m 143.77417,132.94899 0.009,8.15971 c 1.31041,0.51071 2.79208,0.97315 4.42196,1.36219 l 0.0837,-8.21965 c -1.61509,-0.36471 -3.12937,-0.80137 -4.51445,-1.30225 z" /></g></g><g
       inkscape:groupmode="layer"
       id="layer3"
       inkscape:label="火焰"
       style="display:inline;stroke:none"><g
         id="g1"
         inkscape:label="g 辅助线"
         style="stroke:none"><rect
           style="fill:none;fill-opacity:1;stroke:none;stroke-width:0.264583;stroke-dasharray:1, 1;stroke-dashoffset:0;stroke-opacity:0.362542"
           id="rect1"
           width="34.634773"
           height="35.266212"
           x="143.33331"
           y="184.25896" /></g><g
         id="g5"
         inkscape:label="g 外焰"
         style="fill-opacity:0;stroke:none"><path
           style="fill:#ff7800;fill-opacity:1;stroke:none;stroke-width:0.264583;stroke-dasharray:none;stroke-dashoffset:0;stroke-opacity:0.555059"
           d="m 157.78473,184.60975 c 9.96995,5.55616 11.2065,12.063 11.64745,18.07744 1.18077,-1.16555 2.78016,-3.33997 4.13933,-6.03645 8.84376,12.12354 0.50315,21.01088 -1.62533,22.87443 h -22.8204 c -4.29947,-3.7501 -9.83092,-13.15844 -0.58705,-24.56033 l 4.09279,6.49884 c 4.86206,-7.70997 5.02258,-14.00668 5.15321,-16.85393 z"
           id="path5"
           sodipodi:nodetypes="cccccccc" /></g><g
         id="g2"
         inkscape:label="g 内焰"
         style="fill:#f9f06b;fill-opacity:0;stroke:none"><path
           id="path4"
           style="fill:#f9f06b;fill-opacity:1;stroke:none;stroke-width:0.264583;stroke-dasharray:none;stroke-dashoffset:0;stroke-opacity:0.362764"
           d="m 166.90356,219.52517 c 1.9692,-1.77301 6.56849,-8.36346 -6.03069,-18.22745 -0.79116,0.5012 -3.83248,2.85742 -4.72736,10.20359 l -4.30775,-4.58061 c -2.96002,6.33346 -1.63711,11.31831 1.51309,12.60447 z"
           sodipodi:nodetypes="cccccc" /></g></g><g
       inkscape:groupmode="layer"
       id="layer4"
       inkscape:label="星星"
       style="display:inline;stroke:none"><path
         style="fill:#f5c211;fill-opacity:1;fill-rule:nonzero;stroke:none;stroke-width:0.264583;stroke-opacity:0.379592"
         d="m 109.22331,109.79381 c 0.0167,1.48572 2.40328,0.65438 5.63066,3.91088 3.78746,3.82163 2.2093,6.76341 3.7207,6.49883 1.5114,0.26458 -0.0668,-2.6772 3.7207,-6.49883 3.22738,-3.2565 5.61396,-2.42516 5.63066,-3.91088 -0.0167,-1.48572 -2.40328,-0.65438 -5.63066,-3.91088 -3.78746,-3.82163 -2.2093,-6.76341 -3.7207,-6.49883 -1.5114,-0.26458 0.0668,2.6772 -3.7207,6.49883 -3.22738,3.2565 -5.61396,2.42516 -5.63066,3.91088 z"
         id="path11"
         inkscape:path-effect="#path-effect11;#path-effect12"
         inkscape:original-d="m 109.22331,109.79381 c 0.0167,1.48572 2.40328,0.65438 5.63066,3.91088 3.78746,3.82163 2.2093,6.76341 3.7207,6.49883"
         sodipodi:nodetypes="csc"
         inkscape:linked-fill="path16"
         transform="translate(0.13229166,-0.01653646)" /><path
         style="fill:#3584e4;fill-opacity:1;fill-rule:nonzero;stroke:none;stroke-width:0.264583;stroke-opacity:0.379592"
         d="m 109.22331,109.79381 c 0.0167,1.48572 2.40328,0.65438 5.63066,3.91088 3.78746,3.82163 2.2093,6.76341 3.7207,6.49883 1.5114,0.26458 -0.0668,-2.6772 3.7207,-6.49883 3.22738,-3.2565 5.61396,-2.42516 5.63066,-3.91088 -0.0167,-1.48572 -2.40328,-0.65438 -5.63066,-3.91088 -3.78746,-3.82163 -2.2093,-6.76341 -3.7207,-6.49883 -1.5114,-0.26458 0.0668,2.6772 -3.7207,6.49883 -3.22738,3.2565 -5.61396,2.42516 -5.63066,3.91088 z"
         id="path11-6"
         inkscape:path-effect="#path-effect11-7;#path-effect12-5"
         inkscape:original-d="m 109.22331,109.79381 c 0.0167,1.48572 2.40328,0.65438 5.63066,3.91088 3.78746,3.82163 2.2093,6.76341 3.7207,6.49883"
         sodipodi:nodetypes="csc"
         inkscape:linked-fill="path16"
         transform="matrix(0.92220389,0,0,0.92220389,89.206615,15.410541)" /><rect
         style="fill:#f5c211;fill-opacity:0.996078;stroke:none;stroke-width:0.264583;stroke-opacity:0.379592"
         id="rect20"
         width="4.7459707"
         height="4.4813819"
         x="126.6362"
         y="116.59856" /><rect
         style="fill:#3584e4;fill-opacity:0.992157;stroke:none;stroke-width:0.264583;stroke-opacity:0.379592"
         id="rect21"
         width="4.782454"
         height="3.9522481"
         x="203.98511"
         y="122.84709" /></g></g></svg>
